<svg width="30" height="30" viewBox="0 0 30 30" fill="none" xmlns="http://www.w3.org/2000/svg">
  <path opacity="0.5"
    d="M26.25 19.9979V12.4978C26.25 8.96229 26.25 7.19452 25.1516 6.09617C24.1911 5.1357 22.7188 5.01514 20 5H10C7.28121 5.01514 5.80883 5.1357 4.84835 6.09617C3.75 7.19452 3.75 8.96229 3.75 12.4978V19.9979C3.75 23.5334 3.75 25.3011 4.84835 26.3995C5.9467 27.4979 7.71446 27.4979 11.25 27.4979H18.75C22.2855 27.4979 24.0532 27.4979 25.1516 26.3995C26.25 25.3011 26.25 23.5334 26.25 19.9979Z"
    fill="#959595" />
  <path
    d="M10 4.375C10 3.33946 10.8395 2.5 11.875 2.5H18.125C19.1605 2.5 20 3.33946 20 4.375V5.625C20 6.66054 19.1605 7.5 18.125 7.5H11.875C10.8395 7.5 10 6.66054 10 5.625V4.375Z"
    fill="#959595" />
  <path fill-rule="evenodd" clip-rule="evenodd"
    d="M19.4354 13.1103C19.7886 13.4888 19.7682 14.0821 19.3896 14.4353L14.0325 19.4353C13.6724 19.7715 13.1134 19.7715 12.7531 19.4353L10.6103 17.4353C10.2318 17.0821 10.2114 16.4888 10.5646 16.1103C10.9179 15.7318 11.5112 15.7113 11.8897 16.0646L13.3929 17.4676L18.1104 13.0646C18.4889 12.7113 19.0821 12.7318 19.4354 13.1103Z"
    fill="#959595" />
</svg>