<svg width="30" height="30" viewBox="0 0 30 30" fill="none" xmlns="http://www.w3.org/2000/svg">
    <path opacity="0.5"
        d="M2.5 11.4214C2.5 17.5001 7.52429 20.7393 11.2022 23.6387C12.5 24.6618 13.75 25.6251 15 25.6251C16.25 25.6251 17.5 24.6618 18.7979 23.6387C22.4757 20.7393 27.5 17.5001 27.5 11.4214C27.5 5.34276 20.6247 1.03189 15 6.87585C9.3752 1.03189 2.5 5.34276 2.5 11.4214Z"
        fill="#959595" />
    <path
        d="M20.625 16.6089C17.5314 13.2142 13.75 15.7183 13.75 19.2494C13.75 22.4479 16.0175 24.293 17.948 25.864L18.0023 25.9081C18.1843 26.0561 18.3629 26.2019 18.5363 26.3462C19.25 26.9404 19.9375 27.5 20.625 27.5C21.3125 27.5 22 26.9404 22.7137 26.3462C24.7366 24.662 27.5 22.7804 27.5 19.2494C27.5 18.0894 27.0919 17.0402 26.4342 16.2747C25.0898 14.7097 22.7024 14.3294 20.625 16.6089Z"
        fill="#959595" />
</svg>