<svg width="30" height="30" viewBox="0 0 30 30" fill="none" xmlns="http://www.w3.org/2000/svg">
    <path
        d="M2.5 15.155C2.5 8.16586 8.09641 2.5 14.9999 2.5C21.9035 2.5 27.4999 8.16586 27.4999 15.155V21.7094C27.5003 22.7305 27.5005 23.4307 27.321 24.0455C26.97 25.2477 26.1308 26.2421 25.0125 26.7806C24.4406 27.0561 23.7574 27.165 22.761 27.3239L22.5986 27.3499C22.2442 27.4065 21.9415 27.4549 21.6903 27.4799C21.4289 27.5059 21.1624 27.5139 20.8897 27.4595C19.9928 27.2806 19.253 26.6407 18.9385 25.7715C18.843 25.5074 18.8092 25.2395 18.7938 24.9741C18.779 24.7191 18.779 24.4087 18.779 24.0456L18.7789 18.8301C18.7782 18.2982 18.7778 17.8406 18.8994 17.4487C19.1777 16.552 19.9047 15.8719 20.8096 15.6615C21.2051 15.5695 21.6558 15.6061 22.1794 15.6486L22.2959 15.658L22.4331 15.669C23.4128 15.7469 24.083 15.8002 24.652 16.0132C25.0519 16.163 25.4226 16.3691 25.7558 16.622V15.155C25.7558 9.1411 20.9401 4.26582 14.9999 4.26582C9.0597 4.26582 4.24417 9.1411 4.24417 15.155V16.622C4.5772 16.3691 4.94804 16.163 5.34786 16.0132C5.91681 15.8002 6.58706 15.7469 7.56669 15.669L7.70397 15.658L7.82051 15.6486C8.34418 15.6061 8.79476 15.5695 9.1903 15.6615C10.0951 15.8719 10.8221 16.552 11.1005 17.4487C11.2222 17.8406 11.2216 18.2982 11.221 18.8301L11.2209 24.0456C11.2209 24.4087 11.2209 24.7191 11.2061 24.9741C11.1907 25.2395 11.1569 25.5074 11.0613 25.7715C10.7469 26.6407 10.0072 27.2806 9.11015 27.4595C8.83751 27.5139 8.57094 27.5059 8.3096 27.4799C8.05839 27.4549 7.75561 27.4065 7.40128 27.3499L7.23882 27.3239C6.24249 27.165 5.55921 27.0561 4.98739 26.7806C3.86917 26.2421 3.02985 25.2477 2.67885 24.0455C2.53084 23.5386 2.50505 22.9735 2.50075 22.2184L2.5 21.9754V15.155Z"
        fill="#959595" />
    <g opacity="0.5">
        <path fill-rule="evenodd" clip-rule="evenodd"
            d="M15 7.1875C15.5178 7.1875 15.9375 7.60724 15.9375 8.125V14.375C15.9375 14.8927 15.5178 15.3125 15 15.3125C14.4822 15.3125 14.0625 14.8927 14.0625 14.375V8.125C14.0625 7.60724 14.4822 7.1875 15 7.1875Z"
            fill="#959595" />
        <path fill-rule="evenodd" clip-rule="evenodd"
            d="M18.75 9.0625C19.2678 9.0625 19.6875 9.48224 19.6875 10V12.5C19.6875 13.0178 19.2678 13.4375 18.75 13.4375C18.2322 13.4375 17.8125 13.0178 17.8125 12.5V10C17.8125 9.48224 18.2322 9.0625 18.75 9.0625Z"
            fill="#959595" />
        <path fill-rule="evenodd" clip-rule="evenodd"
            d="M11.25 9.0625C11.7678 9.0625 12.1875 9.48224 12.1875 10V12.5C12.1875 13.0178 11.7678 13.4375 11.25 13.4375C10.7322 13.4375 10.3125 13.0178 10.3125 12.5V10C10.3125 9.48224 10.7322 9.0625 11.25 9.0625Z"
            fill="#959595" />
    </g>
</svg>