<svg width="30" height="30" viewBox="0 0 30 30" fill="none" xmlns="http://www.w3.org/2000/svg">
    <path opacity="0.5"
        d="M2.5 15C2.5 8.09644 8.09644 2.5 15 2.5C21.9035 2.5 27.5 8.09644 27.5 15C27.5 21.9035 21.9035 27.5 15 27.5C8.09644 27.5 2.5 21.9035 2.5 15Z"
        fill="#959595" />
    <path
        d="M14.034 10.7112L11.5152 12.717C10.4584 13.5585 9.93006 13.9794 10.0332 14.4491L10.0387 14.4724C10.1562 14.9393 10.826 15.1188 12.1655 15.4778C12.9099 15.6771 13.2821 15.7769 13.4568 16.059L13.4656 16.0739C13.6341 16.3594 13.5383 16.717 13.3466 17.4323L13.2965 17.6191C12.7651 19.6021 12.4995 20.5935 13.0111 20.9138C13.5228 21.2339 14.3369 20.5856 15.965 19.2891L18.4839 17.2833C19.5406 16.4418 20.069 16.021 19.9659 15.5511L19.9605 15.5279C19.8429 15.061 19.1731 14.8815 17.8336 14.5226C17.0893 14.3231 16.717 14.2234 16.5424 13.9413L16.5335 13.9264C16.365 13.6409 16.4609 13.2833 16.6525 12.5681L16.7026 12.3811C17.2339 10.3982 17.4996 9.40672 16.9879 9.08652C16.4763 8.76633 15.6621 9.41462 14.034 10.7112Z"
        fill="#959595" />
</svg>